<!DOCTYPE svg PUBLIC "-//W3C//DTD SVG 1.1//EN" "http://www.w3.org/Graphics/SVG/1.1/DTD/svg11.dtd">
<!-- Uploaded to: SVG Repo, www.svgrepo.com, Transformed by: SVG Repo Mixer Tools -->
<svg width="800px" height="800px" viewBox="-52.05 0 684.34 684.34" id="Layer_1" version="1.1" xml:space="preserve" xmlns="http://www.w3.org/2000/svg" xmlns:xlink="http://www.w3.org/1999/xlink" fill="#f5f5f5">
<g id="SVGRepo_bgCarrier" stroke-width="0"/>
<g id="SVGRepo_tracerCarrier" stroke-linecap="round" stroke-linejoin="round"/>
<g id="SVGRepo_iconCarrier"> <style type="text/css"> .st0{clip-path:url(#SVGID_2_);} .st1{clip-path:url(#SVGID_4_);} .st2{clip-path:url(#SVGID_6_);} .st3{clip-path:url(#SVGID_8_);} .st4{clip-path:url(#SVGID_10_);} .st5{clip-path:url(#SVGID_12_);} .st6{clip-path:url(#SVGID_14_);} .st7{clip-path:url(#SVGID_16_);} .st8{clip-path:url(#SVGID_18_);} .st9{clip-path:url(#SVGID_20_);} .st10{clip-path:url(#SVGID_22_);} .st11{clip-path:url(#SVGID_24_);} .st12{clip-path:url(#SVGID_26_);} .st13{clip-path:url(#SVGID_28_);} .st14{clip-path:url(#SVGID_30_);} .st15{clip-path:url(#SVGID_32_);} .st16{clip-path:url(#SVGID_34_);} .st17{clip-path:url(#SVGID_36_);} .st18{clip-path:url(#SVGID_38_);} .st19{clip-path:url(#SVGID_40_);} </style> <g> <defs> <rect height="684.34" id="SVGID_25_" width="580.24" y="0"/> </defs> <clipPath id="SVGID_2_"> <use style="overflow:visible;" xlink:href="#SVGID_25_"/> </clipPath> <g class="st0"> <path d="M347.74,453.9c-1.95-18.01-3.89-35.62-5.81-53.22c-0.22-2.02-0.3-4.07-0.15-6.15c9.23,45.45,15.1,91.5,14.13,139.06 c6.37-5.14,7.71-12.75,8.32-21.38c2.97-41.85,3.04-83.79,2.64-125.74c-0.13-13.33-0.71-26.64-1.12-41.05 c1.3-3.16,3-7.32,4.71-11.48c0.28,0,0.56,0.01,0.84,0.01c0.56,8.92,1.54,17.84,1.6,26.77c0.22,33.4,0.56,66.82-0.01,100.21 c-0.28,16.21-2.38,32.38-3.87,48.54c-1.47,15.84-2.94,31.69-4.91,47.43c-1.83,14.64-4.35,29.14-6.5,43.72 c-1.46,9.93-0.71,19.79,0.55,30.06c1.02-10.63,1.99-20.73,2.97-30.84c0.26,0.04,0.52,0.08,0.78,0.12c0,6.68,0,13.35,0,20.03 c0.31,0.05,0.63,0.11,0.94,0.16c0.64-4.08,1.32-8.14,1.91-12.23c3.01-20.91,6.02-41.82,9-62.73 c4.69-33.02,11.43-65.32,19.85-97.04c11.96-45.06,25.07-89.48,42.59-131.43c13.95-33.39,31.27-63.13,55.45-85.08 c19.63-17.83,41.09-30.09,64.67-35.64c1.99-0.47,4.04-0.6,5.7-1.6c-11.73,8.09-23.69,15.67-35.14,24.39 c-17.74,13.5-32.25,32.09-46,51.85c-14.42,20.72-26.6,43.6-37,67.91c-20.87,48.82-38.82,99.39-50.23,153.6 c-4.98,23.69-10.76,47.11-15.15,70.97c-3.34,18.18-5.12,36.86-7.47,55.34c-0.77,6.01-1.15,12.11-0.91,18.34 c1.9-11.42,4.25-22.75,5.62-34.28c6.07-51.17,20.83-97.58,43.27-140.07c11.09-20.99,23.34-40.58,37.88-57.59 c13.97-16.34,28.45-31.82,44.66-44.29c2.05-1.58,4.25-2.85,6.42-4.13c1.43-0.85,2.94-1.47,4.59-1.81 c-4.06,4.27-8.15,8.48-12.17,12.83c-17.36,18.78-32.23,40.5-44.67,65.09c-18.5,36.58-35.93,74.01-51.68,112.75 c-1.14,2.81-2.01,5.81-3.07,8.92c5.64-4.24,10.96-8.12,16.15-12.26c1.08-0.86,1.89-2.58,2.52-4.11 c12.72-30.94,28.67-59.01,45.26-86.43c10.56-17.46,21.8-34.28,36.2-46.86c-8.82,13.84-17.92,27.41-26.4,41.61 c-8.61,14.44-16.82,29.31-24.8,44.36c-7.89,14.87-15.27,30.2-22.88,45.33c0.2,0.26,0.41,0.53,0.61,0.79 c4.52-1.74,9.07-3.35,13.53-5.3c1.17-0.51,2.39-1.81,3.06-3.18c8.52-17.63,19.5-32.22,31.8-45.3c2.22-2.36,3.85-5.82,5.47-9.01 c2.8-5.52,5.38-11.22,8.05-16.85c0.26,0.19,0.52,0.38,0.78,0.57c-1.81,5.49-3.62,10.98-5.84,17.69 c23.21-19.38,46.8-33.74,74.06-34.21c-4.41,1.6-8.88,2.97-13.22,4.83c-20.21,8.66-39.36,20.26-56.55,36.8 c-2.95,2.84-4.95,7.57-6.99,11.77c-4.44,9.15-8.63,18.51-12.9,27.8c-0.45,0.98-0.73,2.11-1.16,3.4c8.59,0,16.88,0,25.35,0 c10.56-22.55,21.89-44.33,37.62-61.55c-5.48,9.99-11.12,19.84-16.38,30.03c-5.27,10.21-10.14,20.77-15.44,31.7 c19.43,2.26,37.45,8.03,54.92,16.95c-18.59-5.71-37.14-11.67-56.81-12.17c-16.69,41.13-21.49,86.89-30.08,131.76 c3.01-0.5,3.01-0.49,4.09-6.43c0.51-2.82,1-5.65,2.15-8.36c0,4.42,0,8.84,0,13.27c0.21,0.03,0.42,0.05,0.63,0.08 c1-7.8,2-15.61,3-23.41c0.19,0.03,0.39,0.06,0.58,0.09c0,5.48,0,10.95,0,16.43c0.21,0.06,0.42,0.12,0.63,0.19 c2.27-12.07,4.55-24.13,6.82-36.2c0.22,0.05,0.44,0.11,0.66,0.16c-1.23,15.01-2.46,30.02-3.69,45.02 c0.18,0.05,0.35,0.11,0.53,0.16c1.44-7.29,2.88-14.58,4.32-21.87c0.29,0.09,0.58,0.19,0.88,0.28c-0.42,4.22-0.85,8.44-1.27,12.67 c0.09,0.04,0.18,0.07,0.26,0.11c2.85-9.61,5.7-19.22,8.55-28.82c0.24,0.11,0.49,0.23,0.73,0.34c-1.69,8.63-3.5,17.23-5.02,25.91 c-0.63,3.61-0.64,7.41-1,12.04c7.49-1.11,6.43-10.2,10.31-14.16c-1.11,5.01-2.17,9.84-3.35,15.2c11.79,0,23.38,0,34.98,0 c0.01,0.32,0.02,0.65,0.03,0.97c-7.63,0.92-15.25,2.12-22.89,2.72c-31.71,2.47-63.41,5.73-95.15,6.88 c-45.37,1.65-90.77,2.16-136.15,2.3c-32.35,0.09-64.71-0.87-97.05-2.04c-26.39-0.96-52.77-2.65-79.14-4.53 c-18.13-1.29-36.23-3.44-54.35-5.21c-0.43-0.04-0.87-0.15-1.28-0.86c9.53,0,19.06,0,28.88,0c-1.27-4.91-2.42-9.32-3.56-13.73 c0.21-0.12,0.42-0.23,0.63-0.35c1.9,4.34,3.8,8.69,5.56,12.72c3.67,0,7.03,0,10.68,0c-2.13-15.19-4.18-29.79-6.23-44.38 c0.38-0.12,0.76-0.24,1.15-0.36c2.08,9.03,4.17,18.05,6.24,27.08c0.91,3.98,1.59,8.08,2.73,11.94c0.63,2.12,2.01,3.85,3.55,5.39 c-0.74-27.15-8.72-51.83-13.72-77.45c9.65,24.46,15.37,50.72,20.69,77.31c1.14-9.6-0.65-18.93-0.93-29.44 c2.71,10.25,2.55,20.39,5.66,29.28c0.54-0.22,1.07-0.44,1.61-0.66c-4.79-43.89-16.9-84.61-31.96-123.85 c-19.79-2.5-38.53,2.68-57.71,11.06c7.52-8.37,33.9-16.24,55.92-17.1c-6.09-16.32-12.07-32.37-18.06-48.41 c0.31-0.23,0.62-0.46,0.93-0.68c7.3,16.34,14.61,32.68,21.89,48.98c7.67,1.94,15.29,3.86,22.92,5.79 c0.23-0.32,0.45-0.63,0.68-0.95c-9.34-14.97-18.69-29.94-28.03-44.9c0.09-0.19,0.17-0.38,0.26-0.58 c4.49,4.81,9.35,9.15,13.4,14.53c8.15,10.84,16.37,21.69,22.25,35.07c0.79,1.8,2.31,3.28,3.74,4.33 c4.76,3.49,9.62,6.71,14.57,10.11c-0.22-2.13-0.44-4.28-0.67-6.42c2.07,10.9,9.81,14.12,16.16,19.72 c-2.91-10.64-5.48-21.47-8.79-31.89c-11.51-36.19-26.18-70.32-40.44-104.71c-4.29-10.34-8.78-20.53-13.15-30.81 c-0.69-1.63-1.25-3.36-1.87-5.04c0.3-0.21,0.59-0.42,0.89-0.63c4.15,8.65,8.48,17.16,12.41,25.98 c13.24,29.73,26.33,59.56,39.48,89.36c0.23,0.52,0.52,1.02,0.63,1.59c2.17,11.01,8.64,16.68,15.92,21.78 c-0.62-3.99-1.23-7.83-1.83-11.67c0.13-0.07,0.26-0.15,0.38-0.22c1.52,4.27,3.05,8.55,4.57,12.82c0.17-0.04,0.35-0.09,0.52-0.13 c-0.52-2.65-0.87-5.38-1.58-7.94c-6.17-22.47-12.57-44.84-18.57-67.38c-4.96-18.64-14.84-32.34-25.67-45.05 c-9.57-11.24-19.5-21.94-28.85-32.4c16.62,6.24,29.07,22.29,42.01,37.95c-5.04-19.05-9.96-37.67-14.88-56.29 c0.43-0.21,0.85-0.42,1.28-0.63c1.64,4.9,3.27,9.79,4.91,14.69c0.05,0.14,0.07,0.29,0.1,0.43c2.33,10.36,7.29,17.58,13.85,24.34 c20.41,21.05,38.93,44.77,55.14,71.54c12.66,20.92,24.85,42.21,34.2,66.04c1.91,4.87,3.68,9.83,5.7,14.65 c-1.41-12.56-4.67-24.32-8.61-35.86c-9.35-27.44-20.81-53.22-34.48-77.36c-17.17-30.3-36.7-57.69-58.22-82.7 c-4.69-5.45-9.31-11.02-13.96-16.54c0.2-0.37,0.39-0.74,0.59-1.11c5.86,5.12,11.93,9.87,17.55,15.42 c31.65,31.21,57.16,69.77,77.69,113.95c14.54,31.3,25.03,64.99,31.94,100.53c3,15.41,5.76,30.89,8.61,46.34 c0.26,1.42,0.38,2.9,1.17,4.26c-0.54-5.15-1.15-10.29-1.6-15.45c-3.42-39.33-10.33-77.73-17.71-116.02 c-9.64-50.05-24.99-96.95-44.82-141.49c-9.48-21.29-19.56-42.04-31.46-61.11c-11.52-18.46-24.05-35.69-39.89-48.03 c-3.77-2.94-7.91-5.07-12.42-7.92c9.47,1.95,17.82,5.95,25.71,11.57c13.76,9.81,25.45,23.03,36.13,37.95 c22.84,31.89,37.72,69.98,50.26,109.96c11.65,37.13,20.86,75.27,27.32,114.48c4.15,25.16,7.34,50.58,11.16,75.83 c2.78,18.38,5.88,36.67,8.88,54.99c0.23,1.37,0.81,2.65,1.74,3.81c-1.3-21.84-6.55-42.76-8.11-64.53 c4.51,22.2,9.02,44.4,13.54,66.61c0.21-0.07,0.43-0.14,0.64-0.21c-2.3-18.05-4.6-36.1-6.9-54.16c0.35-0.11,0.7-0.21,1.05-0.32 c3.13,13.05,6.25,26.1,9.38,39.14c0.32-0.12,0.65-0.23,0.97-0.35c-0.9-5.14-1.8-10.27-2.71-15.41c0.13-0.06,0.26-0.11,0.38-0.17 c4.08,11.17,8.15,22.35,12.23,33.52c0.13-0.1,0.27-0.2,0.4-0.29c-5.48-19.43-11.33-38.69-16.35-58.32 c-6.99-27.29-13.04-55-20.07-82.27c-12.24-47.47-23.16-95.6-39.68-141.02c-9.34-25.68-19.87-50.43-33.78-72.37 c-14.68-23.15-31.15-43.72-52.68-55.73c-5.99-3.34-12.47-5.15-19.56-7.99c5.15-0.21,9.65-0.73,14.13-0.51 c19.16,0.94,35.55,11.34,50.58,26.07c21.48,21.03,36.47,48.94,48.75,79.65c10.07,25.18,16.27,52.25,21.92,79.49 c7.85,37.81,14.88,75.92,22.84,113.69c4.39,20.85,9.96,41.27,15.02,61.88c0.2,0.83,0.55,1.59,1.45,2.16 c-0.69-3.25-1.36-6.5-2.07-9.74c-0.72-3.27-1.53-6.51-2.23-9.8c-5.4-25.41-10.81-50.82-16.12-76.26 c-0.47-2.26-0.31-4.75-0.42-7.14c-0.68-15.68-1.71-31.34-1.93-47.03c-0.3-20.94-1.01-42,0.31-62.81 c2.65-41.51,10.09-81.82,20.88-121.03c7.43-27,17.16-52.57,28.2-77.3c0.15-0.34,0.45-0.58,1.06-1.33 c3.59,8.32,7.07,16.38,10.37,24.03c-10.21,19.05-17.04,39.51-23.66,60.09c-12.2,37.93-20.96,77.25-26.62,117.71 c-3.94,28.11-4.55,56.56-3.34,85.05c0.57,13.44,0.93,26.99,2.56,40.24c1.62,13.25,4.71,26.19,7.15,39.27 c0.43-0.06,0.85-0.12,1.28-0.18c0-5.34,0-10.68,0-16.03c0.42-0.06,0.84-0.11,1.25-0.17c1.19,25.7,4.67,50.74,12.46,74.58 c-2.32-15.28-4.63-30.57-6.95-45.85c0.3-0.09,0.6-0.18,0.9-0.26c2.86,13.38,5.5,26.84,8.64,40.11c3.15,13.3,6.79,26.4,10.21,39.59 c0.39-0.15,0.78-0.3,1.17-0.45c-0.13-0.85-0.2-1.73-0.41-2.54c-5.59-21.13-9.35-42.83-11.31-65.02 c-1.95-22.12-4.27-44.24-5.07-66.45c-0.78-21.5,0.68-43.03,4.32-64.2c0.44-2.53-0.34-5.57-0.94-8.23 c-4.39-19.54-8.88-39.04-13.33-58.56c-0.27-1.18-0.41-2.41-0.2-3.79c7.4,17.59,12.92,36.2,18.3,55.99 c3.43-16,6.64-30.97,9.85-45.95c0.34,0.12,0.68,0.24,1.02,0.36c-1.69,9.38-3.37,18.76-5.06,28.13c-1.41,7.82-2.93,15.6-4.18,23.46 c-0.33,2.06-0.09,4.46,0.35,6.53c4.67,22.05,6.92,44.63,8.68,67.31c0.97,12.49,1.45,25.05,2.21,37.58 c0.93,15.5,1.91,31,2.89,46.49c0.06,0.88,0.3,1.74,0.52,2.93c0.84,0.07,1.68,0.14,2.58,0.21c-0.36-11.02-0.89-21.75-1.03-32.5 c-0.48-35.89,2.83-71.25,8.27-106.41c6.48-41.86,18.93-80.92,31.59-119.93c14.75-45.47,32.67-88.82,52.21-130.96 c20.48-44.18,45.09-84.13,75.35-117.62c8.61-9.53,17.84-18.12,26.82-27.09c1.04-1.04,2.25-1.79,4.02-3.17 c-6.63,9.16-12.76,17.51-18.77,26c-15.7,22.15-29.21,46.52-41.54,71.97c-19.43,40.1-38.63,80.38-57.76,120.72 c-16.7,35.22-33.12,70.67-46.98,108.01c-6.68,17.99-13.14,36.35-15.61,56.13c-2.85,22.74-8.66,45.02-7.44,68.49 c0.78,15.07,1.82,30.12,3.07,45.14c1.55,18.7,3.43,37.36,5.17,56.04c0.29,3.1,0.65,6.19,1.62,9.3c0-12.44,0-24.89,0-37.33 c0.42-0.01,0.83-0.01,1.25-0.02c0.83,24.26,1.66,48.52,2.5,72.77c0.36,0,0.72,0,1.07,0c0.49-26.88,0.98-53.77,1.48-81.32 c1.32,14.91,2.59,29.21,3.85,43.5c4.3-36.91-4.46-72.36-6.77-108.52c0.32-0.08,0.64-0.17,0.95-0.25 c4.11,26.29,8.22,52.58,12.33,78.88c-1.55-46.36-10.55-91.15-17.38-136.4c0.35-0.13,0.7-0.26,1.05-0.38 c3.16,14.23,6.65,28.35,9.39,42.72c2.75,14.43,5.05,29.03,6.99,43.68c1.96,14.77,3.23,29.7,5.19,44.53 C351.3,535.17,350.99,494.81,347.74,453.9z M181,489.45c-17.37-29.98-36.81-57.41-59.16-83c2.76,8.8,4.97,16.38,7.52,23.77 c1.29,3.72,2.91,7.37,4.86,10.55c6.83,11.18,14.34,21.71,20.72,33.31c9.17,16.65,17.57,34.04,26.35,51.07 c1.33,2.58,2.65,5.44,4.5,7.24c11.71,11.41,20.44,26.24,28.46,41.91c8.9,17.38,15.22,36.4,20.8,55.96 c0.08-1.32,0.08-2.63-0.2-3.82c-3.48-14.56-6.25-29.52-10.67-43.58C213.57,549.07,198.95,518.26,181,489.45z M469.96,576.87 c6.83-15.35,13.65-30.71,20.9-47.03c-8.98,0.64-17.14,1.22-25.35,1.81c-15.68,39.72-31.35,78.48-34.05,123.41 c3.43-21.14,7.48-42.03,15.49-61.21c-0.82,5.05-2.1,9.91-3.27,14.81c-1.17,4.94-2.37,9.88-3.3,14.9 c-0.9,4.82-1.47,9.74-2.18,14.62c7.69-31.51,18.67-60.67,33.16-87.56c-3.75,12.32-7.73,24.48-11.54,36.74 c-5.49,17.66-11.76,34.97-14.96,53.72c-0.67,3.94-0.93,7.99-1.39,11.99c0.43,0.09,0.86,0.18,1.28,0.27 c1.55-7.18,3.11-14.35,4.66-21.53c0.23,0.03,0.45,0.07,0.68,0.1c0,2.43,0,4.86,0,7.28c0.22,0.03,0.44,0.06,0.65,0.09 c2.64-10.57,5.27-21.15,7.91-31.72c0.23,0.15,0.46,0.29,0.69,0.44C462.83,597.83,466.32,587.67,469.96,576.87z M117.86,650.38 c0-3.88,0-7.76,0-11.64c0.16,0,0.32-0.01,0.48-0.01c1.53,8.81,3.05,17.62,4.58,26.42c0.58-0.19,1.17-0.38,1.75-0.57 c-3.35-31.63-12.76-61.33-18.43-92.22c0.26-0.13,0.53-0.25,0.79-0.38c4.58,14.48,9.17,28.95,13.75,43.43 c-0.22-5-0.76-9.85-1.56-14.63c-2.84-16.95-5.18-34.1-10.91-49.96c-0.51-1.42-1.18-3.48-2.09-3.82 c-7.96-2.99-15.98-5.65-23.99-8.41c-0.19,0.48-0.37,0.95-0.56,1.43c16.15,39.28,28.58,80.38,35.16,124.36 c0.35-0.11,0.69-0.22,1.04-0.32C117.87,659.79,117.87,655.52,117.86,650.38z M148.85,498.25c3.85,13.8,7.7,27.61,11.57,41.41 c1.49,5.32,3.6,9.95,8.39,12.17c-1.74-8.2-3.41-16.08-5.07-23.96c0.29-0.12,0.58-0.24,0.87-0.36c2.88,9.01,5.81,18,8.63,27.04 c2.68,8.6,8.02,13.8,13.59,19.34c2.06-7.97,0.24-14.64-2.06-21.15c-8.43-23.87-19.49-45.7-30.86-67.24 c-4.89-9.25-10.36-17.98-15.57-26.94c-0.14,0.12-0.29,0.24-0.43,0.36C141.52,471.8,145.13,484.68,148.85,498.25z M412.08,628.74 c7.34-31.27,15.59-62.06,28.58-91.02c-1.61,0.37-2.53,0.42-3.36,0.81c-5.63,2.65-11.77,4.26-15.38,11.42 c-2.05,4.07-3.83,8.38-5.59,12.68c-9.54,23.28-15.77,48.1-19.8,73.91c-0.62,4.01-0.99,8.08-1.48,12.13 c0.4,0.11,0.8,0.23,1.19,0.34c3.96-16.45,7.93-32.9,11.89-49.35c0.16,0.06,0.31,0.13,0.47,0.19c-1.7,13.16-3.41,26.33-5.11,39.49 c0.28,0.06,0.57,0.12,0.85,0.18c5.84-26.17,11.94-52.21,22.07-76.28c-7.82,27.3-13.95,55.2-17.9,83.9 C409.66,641.25,410.81,635.35,412.08,628.74z M136.93,617.63c0.99,6.11,1.91,12.23,2.99,18.31c1.03,5.81,2.23,11.57,3.35,17.36 c0.36-1.2,0.15-2.2,0.03-3.22c-2.61-23.7-5.37-47.35-10.39-70.43c-1.11-5.12-1.24-11.26-3.56-15.12 c-3.33-5.53-8.77-8.19-14.22-10.49c10.21,34.78,11.39,71.99,18,107.59c0.3-0.07,0.6-0.15,0.9-0.22 c-1.84-18.43-3.68-36.86-5.52-55.29c0.23-0.04,0.46-0.09,0.7-0.13c3.08,16.99,6.15,33.99,9.23,50.98c0.17-0.05,0.33-0.11,0.5-0.16 c-1.16-14.17-2.33-28.33-3.49-42.5c0.21-0.04,0.42-0.09,0.63-0.13C136.3,615.11,136.53,616.05,136.93,617.63z M291.58,574.6 c-1.78-40.85-1.87-81.88-8.24-122.4c-2.49,26.96-3.21,53.78-0.71,80.62c2.45,26.37,5.42,52.64,10.31,78.45 c0.31-0.05,0.62-0.11,0.93-0.16C293.13,599.22,292.39,587.33,291.58,574.6z M399.44,538.44c17.31-42.76,36.8-83.75,58.41-124.01 c-23.37,20.76-68.23,122.47-68.59,155.41C392.71,559.17,395.95,549.11,399.44,538.44z M455.38,540.58 c0.89-2.37,1.78-4.75,2.75-7.36c-5.62-0.29-9.68,1.42-12.38,8.51c-7.84,20.57-14.14,41.89-19.1,63.9 c-2.59,11.5-3.98,23.3-4.05,35.31C431.06,606.31,441.45,572.81,455.38,540.58z M313.14,566.29c-1.15-16.71-2.3-33.43-3.46-50.14 c-2.62,44.52-0.39,88.63,6.13,132.41c0.47-3.31,0.59-6.61,0.45-9.89C315.29,614.82,314.26,590.97,313.14,566.29z M148.07,563.18 c0.87,12.34,10.15,15.81,14.77,24.52c-2.79-13.73-5.51-27.11-8.19-40.32c-4.4-3.8-8.59-7.41-13.47-11.62 C143.65,545.44,145.83,553.95,148.07,563.18z M390.18,607.05c-1.71,10.86-3.42,21.72-5.13,32.59c0.3,0.09,0.59,0.18,0.89,0.28 c5.57-32.13,14.24-62.6,28.34-90.2c-6,5.14-10.95,11.29-14.44,19.33C394.81,580.66,392.56,593.5,390.18,607.05z M348.49,628.9 c0.27-3.27,0.34-6.59,0.84-9.8c2.99-19.16,6.17-38.28,9.09-57.46c1.32-8.64,2.17-17.41,3.23-26.11c-0.4-0.16-0.81-0.33-1.21-0.49 c-0.82,2.6-1.95,5.12-2.39,7.82c-2.62,16.1-5.21,32.21-7.54,48.38c-1.53,10.65-2.76,21.39-3.8,32.14 c-0.34,3.48,0.37,7.12,0.6,10.69c0.32-0.03,0.63-0.07,0.95-0.1C348.32,632.55,348.38,631.11,348.49,628.9z M464.68,620.08 c0.23-0.46,0.45-0.91,0.68-1.37c-3.13,13.22-7.44,25.99-7.16,40.09c0.34,0.11,0.69,0.23,1.03,0.34 c6.88-30.1,13.76-60.21,20.63-90.31c-4.96,13.31-9.31,26.94-13.45,40.69C465.37,612.98,465.01,616.82,464.68,620.08z M211.54,589.18c-0.46-2.38-0.51-5.09-1.46-7.07c-4.43-9.3-8.98-18.51-13.76-27.51c-2.11-3.98-4.86-7.37-7.32-11.03 c-0.2,0.25-0.39,0.5-0.59,0.75c7.45,18.39,14.9,36.79,22.57,55.71C211.12,596.16,211.24,593.03,211.54,589.18z M191.48,576.81 c0.42,1.8,0.61,3.76,1.3,5.36c5.95,13.86,11.99,27.65,18.01,41.45c0.12,0.28,0.45,0.4,0.91,0.8 c-4.26-23.56-14.39-43.07-22.65-63.75c-0.34,0.66-0.21,1.03-0.14,1.43C189.79,566.76,190.66,571.43,191.48,576.81z M459.17,515.02 c-2.69,4.23-5.39,8.45-8.55,13.41c5.84-0.09,9.95-1.29,11.84-8.17c0.67-2.44,2.22-4.46,3.35-6.68c3.1-6.09,6.19-12.19,9.28-18.29 c-0.31-0.32-0.62-0.65-0.94-0.97C469.27,501.06,464.37,507.79,459.17,515.02z M154.66,585.31c-0.49-0.47-0.97-0.93-1.3-1.25 c3.81,18.01,7.63,36.04,11.44,54.08c-0.28-10.33-1.71-20.46-2.14-30.67C162.29,598.62,159.17,592.01,154.66,585.31z M150.01,602.19c-0.81-2.71-1.63-5.42-2.44-8.13c-0.32,0.1-0.64,0.21-0.96,0.31c2.41,17.41,4.81,34.82,7.03,50.89 c1.6,2.84,2.63,4.67,3.66,6.5c0.36-0.15,0.72-0.3,1.08-0.45C155.63,635.18,152.87,619.04,150.01,602.19z M137.04,571.47 c-0.55-0.43-1.09-0.86-2.11-1.67c3.81,16.93,7.48,33.22,11.15,49.5c0.42-0.13,0.83-0.25,1.25-0.38 c-1.41-9.9-2.47-19.92-4.37-29.66C141.78,583.23,139.33,577.61,137.04,571.47z M190.95,609.46c1.76,11.42,3.52,22.84,5.28,34.25 c0.32-0.09,0.63-0.18,0.95-0.28c-0.62-14.65-4.05-28.9-3.31-43.8c0.17-3.38-1.58-6.94-2.44-10.41c-0.21,0.11-0.43,0.23-0.64,0.34 C190.8,595.94,190.8,602.31,190.95,609.46z M220.08,614.61c-0.9-3.97-1.74-7.96-2.71-11.89c-0.91-3.68-1.96-7.3-2.99-11.13 c-2.55,17.47,5.83,31.49,6.89,47.63c0.5-0.12,1-0.23,1.51-0.35C221.89,631.04,221,623.2,220.08,614.61z M168.76,570.16 c3.19,9.91,6.38,19.82,9.57,29.73c0.56-0.7,0.68-1.26,0.58-1.72c-2.57-11.12-5-22.31-7.88-33.3c-0.7-2.67-2.89-4.68-4.4-6.99 c-0.24,0.25-0.49,0.5-0.73,0.76C166.81,562.25,167.73,565.85,168.76,570.16z M200.15,617.41c-0.49-2.72-0.99-5.44-1.48-8.16 c-0.34,0.12-0.69,0.24-1.03,0.36c0.67,14.46,3.96,28.03,8.45,41.21c-0.31-3.83-0.89-7.58-1.61-11.27 C203.1,632.4,201.63,625.29,200.15,617.41z M185.89,592.67c0.33,0.67,0.66,1.35,1.06,2.17c1.71-10.35-3.19-16.01-8.56-22.51 C181.08,579.5,183.42,585.75,185.89,592.67z M304.88,606.78c-0.13-2.08-0.25-4.16-0.39-6.23c-0.13-1.97-0.28-3.93-0.41-5.89 c-0.56,0.09-1.11,0.17-1.67,0.26c0.63,9.54,1.26,19.08,1.89,28.63c0.23-0.02,0.45-0.04,0.68-0.06 C304.97,618.19,304.97,612.9,304.88,606.78z M163.82,576.86c0.7,3.8,1.4,7.6,2.09,11.4c-1.65-13.41-3.63-26.71-9.1-38.49 C159.09,558.57,161.36,567.37,163.82,576.86z M287.39,632.09c0.3,0.66,0.6,1.33,0.91,1.99c0.13-0.09,0.26-0.17,0.39-0.26 c-1.88-6.71-3.76-13.41-5.64-20.12c-0.3,0.15-0.6,0.29-0.91,0.44C283.83,619.93,285.52,625.71,287.39,632.09z M210.58,639.67 c-0.29-1.28-0.57-2.57-0.86-3.85c-0.32,0.1-0.63,0.2-0.95,0.29c0.52,4.38,1.04,8.75,1.56,13.13c0.32-0.05,0.63-0.11,0.95-0.16 C211.07,646.19,210.87,643.3,210.58,639.67z M170.73,619.91c-0.32-1.39-0.63-2.78-0.95-4.17c-0.24,0.09-0.48,0.18-0.73,0.26 c1.26,5.99,2.53,11.98,3.79,17.96c0.23-0.07,0.45-0.15,0.68-0.22C172.65,629.36,171.76,624.98,170.73,619.91z"/> <path d="M342.73,368.28c15.1-33.72,29.74-67.42,45.1-100.54c15.5-33.43,31.47-66.51,47.68-99.37 c14.75-29.91,31.07-58.27,50.98-82.76c0.45-0.55,0.92-1.06,1.47-1.45c-23.31,44.3-46.64,88.53-61.39,139.47 c0-5.83,0-11.66,0-17.49c-0.31-0.05-0.63-0.11-0.94-0.17c-0.56,3.83-1.55,7.65-1.58,11.49c-0.04,4.86-1.64,8.55-3.7,12.18 c-2.04,3.58-4.4,6.95-5.95,10.87c-1.2,3.05-1.65,6.77-1.96,10.26c-2.22,25.11-4.07,50.27-6.5,75.35 c-2.79,28.71-6.22,57.29-13.64,82.77c1.53-43.58,3.12-88.97,4.71-134.36c-25.98,51.98-53.29,102.82-73.9,159.04 C326.27,410.19,333.91,389.11,342.73,368.28z"/> <path d="M388.19,459.27c-5.89,24.14-11.75,47.93-17.6,71.72c-0.18-0.04-0.37-0.08-0.55-0.12c1.16-8.26,2.2-16.56,3.49-24.78 c5.89-37.56,15-73.93,24.62-110.03c18.22-68.41,36.96-136.59,55.51-204.85c3.24-11.92,6.61-23.78,9.93-35.66 c0.29-1.02,0.65-2,1.26-2.87c-9.47,50-21.84,98.83-34.34,147.63c21.72-64.41,49.85-124.14,76.23-185.11 c0.27,0.18,0.55,0.35,0.82,0.53c-2.61,7.21-5.14,14.47-7.84,21.62c-16.44,43.44-33.11,86.73-49.34,130.31 c-12.01,32.26-24.19,64.47-34.93,97.46C405.42,395.86,397.21,427.61,388.19,459.27z"/> <path d="M256.48,69c0.45,0.45,0.9,0.9,1.91,1.9c-0.52-6.63-0.98-12.66-1.45-18.69c0.22-0.08,0.44-0.16,0.66-0.23 c1.07,3.9,2.13,7.8,3.28,12.03c0.37-2.17,0.68-4.03,1-5.89c0.26-0.06,0.53-0.13,0.79-0.19c1.11,4.93,2.22,9.86,3.36,14.94 c0.51-7.9,1.01-15.87,1.52-23.83c0.16-0.04,0.32-0.08,0.49-0.12c1.27,6.73,2.54,13.46,3.93,20.82c0.96-4.33,1.81-8.17,2.66-12.02 c0.17,0.04,0.35,0.07,0.52,0.11c-0.24,3.38-0.52,6.75-0.7,10.14c-0.3,5.74-0.46,11.49-0.82,17.21c-0.2,3.25-0.69,6.46-1.08,9.96 c12.77,29.36,26.4,59.08,38.81,89.65c14.88,36.65,27.42,74.73,35.71,114.96c0.65,3.14-0.12,6.78-0.22,10.19 c-0.35,0.03-0.7,0.07-1.04,0.1c-1.68-6.63-3.35-13.26-5.03-19.88c-0.21,0.07-0.41,0.14-0.62,0.21c1.39,9.25,2.79,18.51,4.18,27.76 c-0.5,0.18-1,0.35-1.5,0.53c-13.09-65.87-32.75-127.84-62.51-184.68c-0.89,2.09-1.42,3.32-2.18,5.1 c-10.08,1.64-18.77-4.76-27.78-9.63c5.3,0.69,10.6,1.38,16.48,2.14c-2.89-2.29-5.4-4.27-8.58-6.79c2.08,0.41,3.42,0.67,4.76,0.93 c0.02-0.09,0.03-0.17,0.05-0.26c-6.04-2.83-12.09-5.65-18.13-8.48c19.31,1.78,19.61-0.97,33.16,14.65 c1.71-0.36,3.23-0.69,4.91-1.05c-5.24-11.48-10.6-23.24-15.98-34.99c-1.94-4.23-2.89-8.7-2.46-13.86c1.33,0.35,2.25,0.6,4.03,1.07 c-1.09-2.75-1.87-4.7-2.63-6.63c-0.93,1.07-1.73,1.99-3.02,3.48c-2.11-2.89-4.08-5.6-6.26-8.81 C256.5,69.92,256.49,69.46,256.48,69z"/> <path d="M17.17,384.09c11.23-45.78,36.14-70.57,70.83-79.07c21.27-5.22,40.83,2.4,58.94,18.04c21.1,18.21,34.28,44.08,44.56,74.59 c-5.05-8.3-9.35-15.96-14.12-23.07c-16.15-24.08-34.08-45.06-58.63-53.09C91.8,312.66,66.93,319.3,44.72,341 c-16.91,16.51-25.02,39.94-28.36,66.61c-0.31,2.51-0.49,5.04-0.74,7.56c-0.24,2.34-0.49,4.68-0.81,7.68 C13.26,413.63,14.06,401.03,17.17,384.09z"/> <path d="M393.74,125.52c-3.33-39.39-6.36-78.44-17.34-115.61c0.98,1.83,2.02,3.63,2.94,5.51c11.65,23.61,18.89,49.59,22.39,77.1 c2.75,21.61,4.08,43.54,5.77,65.37c0.26,3.3-0.41,7.2-1.62,10.13c-3.15,7.64-6.84,14.9-9.98,21.58 C395.21,168.77,394.48,147.35,393.74,125.52z"/> <path d="M220.44,313.22c5.57,29.03,11,57.73,16.51,86.4c2.15,11.2,5.08,22.21,6.62,33.54c1.74,12.74,2.31,25.75,3.4,38.65 c-0.31,0.09-0.62,0.18-0.92,0.27c-9.74-47.24-20.13-94.27-29.02-141.79c-8.95-47.84-13.61-96.76-18.24-145.65 c2.97,17.88,5.89,35.78,8.91,53.65c3.97,23.56,8.01,47.09,12.02,70.64C219.93,310.23,220.12,311.55,220.44,313.22z"/> <path d="M299.63,438.52c-0.88,12.14-1.74,23.88-2.59,35.61c-0.38,0.03-0.75,0.06-1.13,0.09c-0.57-6.08-1.46-12.14-1.67-18.23 c-1.15-34.23,3.72-67.4,11.06-100.01c6.12-27.21,12.67-54.27,21.73-80.13c0.47-1.33,0.95-2.66,1.73-4.83 c1.34,5,2.46,9.19,3.49,13.04c-12.38,37.3-21.9,75.55-28.21,115.1C302,411.99,301.09,425.12,299.63,438.52z"/> <path d="M366.34,124c-24.19,12.39-31.8,18.51-57.21,46c-3.69-8-7.36-15.94-11.23-24.33c23.55-19.42,49.36-27.17,77.14-25.34 C372.23,121.53,369.42,122.73,366.34,124z"/> <path d="M237.02,257.61c-2.89,11.56-5.65,22.82-8.42,34.08c-0.43-14.18,1.5-27.84,4.95-41.19c8.55-33.06,24.53-59.32,43.99-82.35 c3.2-3.78,6.72-7.09,10.07-10.59c0.46,0.4,0.83,0.57,1.01,0.91c2.39,4.68,4.76,9.38,7.41,14.63 C268.68,192.01,248.58,219.52,237.02,257.61z"/> <path d="M454.69,349.59c-9.68,21.51-19.62,42.47-28.76,64c-8,18.84-15.09,38.34-22.59,57.54c-0.51,1.31-1.04,2.6-1.68,4.17 c-0.69-12.9,18.21-67.04,38.58-110.95c18.24-39.31,43.98-79.14,60.85-93.56C484.52,295.81,468.55,321.44,454.69,349.59z"/> <path d="M402.03,52.72c8.15,25,12.82,50.81,15.02,77.45c0.21,2.52,0.13,5.18,0.72,7.54c2.35,9.52-2.9,15.11-6.65,23.06 c-1.46-42.5-4.97-83.28-15.7-122.46c0.32-0.17,0.64-0.35,0.96-0.52c0.95,2.31,1.95,4.6,2.85,6.95 C400.17,47.25,401.03,49.84,402.03,52.72z"/> <path d="M364.66,218.96c-7.12,16.89-14.11,33.5-21.19,50.35c-0.31-0.67-0.43-0.88-0.51-1.12c-2.73-7.55-0.24-13.71,2.66-20.17 c10.69-23.78,21.47-47.48,34.4-69.35c0.48-0.82,1.05-1.55,2.21-1.84C376.42,190.78,370.61,204.73,364.66,218.96z"/> <path d="M256.44,68.69c0.05,0.77,0.06,1.23,0.08,2.03c0.62,4.84,0.44,9.93,2.08,13.65c1.59,3.61,5.03,5.82,7.43,9.05 c-1.22,4.1-3.03,4.02-4.8,3.09c-2.18-1.15-4.17-2.94-6.37-4c-1.11-0.54-2.5-0.09-3.77-0.09c-0.19,0.64-0.38,1.29-0.56,1.93 c-5.81-5.7-11.61-11.4-17.42-17.1c0.19-0.41,0.38-0.81,0.57-1.22c5.38,3.45,10.77,6.9,16.15,10.35c0.21-0.3,0.41-0.6,0.62-0.9 c-2.19-3.66-4.39-7.32-6.58-10.98c0.17-0.23,0.34-0.45,0.5-0.68c0.93,0.57,1.85,1.13,3.21,1.96c-1.71-3.38-3.23-6.39-4.75-9.4 c0.1-0.19,0.2-0.39,0.31-0.58c1.17,0.99,2.34,1.98,3.82,3.22c-0.61-2.15-1.1-3.86-1.59-5.58c0.29-0.3,0.59-0.59,0.88-0.89 c1.95,2.95,3.91,5.9,6.05,9.14c-1.77-6.85-3.46-13.4-5.15-19.94c0.39-0.23,0.77-0.47,1.16-0.7 C250.99,56.83,253.7,62.61,256.44,68.69z"/> <path d="M214.59,492.06c-3.71-16.19-7.64-32-10.84-48.06c-2.63-13.23-4.39-26.75-6.54-40.15c0.32-0.13,0.64-0.26,0.96-0.39 c1.6,6.07,3.28,12.11,4.78,18.22c5.32,21.69,8.64,43.98,11.55,66.4c0.17,1.32,0.47,2.6,0.7,3.91c0.02,0.13-0.03,0.39-0.07,0.4 C214.98,492.41,214.83,492.36,214.59,492.06z"/> <path d="M279.64,106.78c-0.63-6.04-1.41-11.75-1.59-17.49c-0.16-5.12,0.33-10.28,1-15.51c1.33,7.78,2.67,15.56,4.15,24.22 c0.86-6.49,1.63-12.31,2.39-18c2.66,6.87,1.83,31.53-1.77,35.64C282.43,112.73,281.09,109.92,279.64,106.78z"/> <path d="M258.27,101.99c-0.87-1.31-1.83-2.35-2.77-3.42c-0.14-0.16-0.16-0.49-0.49-1.55c6.4,5.64,12.33,10.87,18.21,16.07 c-0.95,5.54-3.13,7.15-7.19,4.64c-6.94-4.3-13.72-9.03-20.35-14.37c4.08,1.35,8.16,2.71,12.75,4.23 c-1.28-1.48-2.22-2.56-3.57-4.12C256.17,102.99,257.18,102.62,258.27,101.99z"/> </g> </g> </g>
</svg>